<?xml version="1.0" encoding="utf-8"?>
<!-- Generator: Adobe Illustrator 22.1.0, SVG Export Plug-In . SVG Version: 6.00 Build 0)  -->
<svg version="1.0" id="Layer_1" xmlns="http://www.w3.org/2000/svg" xmlns:xlink="http://www.w3.org/1999/xlink" x="0px" y="0px"
	 viewBox="0 0 11338.6 3543.3" style="enable-background:new 0 0 11338.6 3543.3;" xml:space="preserve">
<style type="text/css">
	.st0{fill:#075E93;}
	.st1{fill:#58595B;}
</style>
<g>
	<g>
		<g>
			<polygon class="st0" points="2425.2,2553.8 2166.3,2553.8 2289,2819.4 1245.5,2819.4 1768.6,1893.9 1594.3,1558 726,3130.2 
				2702.3,3130.2 			"/>
		</g>
		<polygon class="st0" points="2251.4,413.1 1848.8,1128.9 2007.8,1458.1 2253.6,1011.5 2807.9,2147.7 2345.8,2147.7 1883,2147.7 
			1690.4,2147.7 1506,2479.6 3237.3,2479.6 		"/>
		<g>
			<polygon class="st0" points="1443,1077.5 1716.2,1612.6 1948.1,2066.9 2226.9,2066.9 1938.5,1515.4 1424.7,532.8 910.9,1515.4 
				397.1,2498 981,2498 1195.8,2147.7 896.7,2147.7 1169.9,1612.6 			"/>
		</g>
	</g>
	<g>
		<path class="st1" d="M3196.8,955.4h656.4V1128h-220.2v526.3h-216V1128h-220.2V955.4z"/>
		<path class="st1" d="M4034.7,1148h181.6v82.9c17.5-35.9,35.5-60.6,54.1-74.1c18.6-13.5,41.5-20.3,68.9-20.3
			c28.6,0,59.9,8.9,93.9,26.7l-60.1,138.2c-22.9-9.5-41-14.3-54.3-14.3c-25.4,0-45.1,10.5-59.1,31.5c-20,29.6-30,84.9-30,165.9
			v169.7h-195V1148z"/>
		<path class="st1" d="M4609.9,955.4h194v132h-194V955.4z M4609.9,1148h194v506.3h-194V1148z"/>
		<path class="st1" d="M5298.7,955.4V1148h106.8v142.1h-106.8v179.4c0,21.6,2.1,35.8,6.2,42.8c6.4,10.8,17.5,16.2,33.4,16.2
			c14.3,0,34.3-4.1,60.1-12.4l14.3,133.9c-48,10.5-92.8,15.7-134.4,15.7c-48.3,0-83.9-6.2-106.8-18.6
			c-22.9-12.4-39.8-31.2-50.8-56.4c-11-25.2-16.4-66.1-16.4-122.6v-178.1h-71.5V1148h71.5v-93L5298.7,955.4z"/>
		<path class="st1" d="M6168,1654.3h-181.2v-82c-27,33.7-54.3,57.7-81.8,72c-27.5,14.3-61.3,21.5-101.3,21.5
			c-53.4,0-95.3-16-125.6-47.9c-30.4-31.9-45.5-81.1-45.5-147.5V1148h195v278.4c0,31.8,5.9,54.3,17.6,67.7
			c11.8,13.3,28.3,20,49.6,20c23.2,0,42.2-8.9,57-26.7c14.8-17.8,22.2-49.7,22.2-95.8V1148h194V1654.3z"/>
		<path class="st1" d="M6422.5,1148h180.7v82.5c27-33.7,54.3-57.8,82-72.2c27.6-14.5,61.3-21.7,101.1-21.7
			c53.7,0,95.7,16,126.1,47.9c30.3,31.9,45.5,81.3,45.5,148v321.8h-195v-278.4c0-31.8-5.9-54.3-17.6-67.5
			c-11.8-13.2-28.3-19.8-49.6-19.8c-23.5,0-42.6,8.9-57.2,26.7c-14.6,17.8-21.9,49.7-21.9,95.8v243.1h-194V1148z"/>
		<path class="st1" d="M7562.6,1148h181.6v478.1l0.5,22.4c0,31.8-6.8,62-20.3,90.8c-13.5,28.8-31.5,52-53.9,69.8
			c-22.4,17.8-50.9,30.7-85.3,38.6c-34.5,7.9-74,11.9-118.5,11.9c-101.7,0-171.5-15.3-209.5-45.8c-38-30.5-57-71.4-57-122.5
			c0-6.4,0.3-14.9,1-25.7l188.3,21.5c4.8,17.5,12.1,29.6,21.9,36.2c14.3,9.8,32.3,14.8,53.9,14.8c28,0,48.9-7.5,62.7-22.4
			c13.8-14.9,20.7-41,20.7-78.2v-76.8c-19.1,22.6-38.1,38.9-57.2,49.1c-29.9,15.9-62.1,23.8-96.8,23.8c-67.7,0-122.4-29.6-164-88.7
			c-29.6-42-44.3-97.4-44.3-166.4c0-78.8,19.1-138.9,57.2-180.2c38.1-41.3,88-62,149.7-62c39.4,0,71.9,6.7,97.5,20
			c25.6,13.3,49.5,35.4,71.7,66.3V1148z M7380.1,1393.5c0,36.6,7.8,63.6,23.4,81.3c15.6,17.6,36.1,26.5,61.5,26.5
			c24.1,0,44.4-9.1,60.8-27.4c16.4-18.3,24.5-45.8,24.5-82.7c0-36.9-8.6-65.1-25.7-84.6c-17.2-19.5-38.1-29.3-62.9-29.3
			s-44.6,9-59.4,26.9C7387.4,1322.1,7380.1,1351.9,7380.1,1393.5z"/>
		<path class="st1" d="M8360,1148h181.6v478.1l0.5,22.4c0,31.8-6.8,62-20.3,90.8c-13.5,28.8-31.5,52-53.9,69.8
			c-22.4,17.8-50.9,30.7-85.3,38.6c-34.5,7.9-74,11.9-118.5,11.9c-101.7,0-171.5-15.3-209.5-45.8c-38-30.5-57-71.4-57-122.5
			c0-6.4,0.3-14.9,1-25.7l188.3,21.5c4.8,17.5,12.1,29.6,21.9,36.2c14.3,9.8,32.3,14.8,53.9,14.8c28,0,48.9-7.5,62.7-22.4
			c13.8-14.9,20.7-41,20.7-78.2v-76.8c-19.1,22.6-38.1,38.9-57.2,49.1c-29.9,15.9-62.1,23.8-96.8,23.8c-67.7,0-122.4-29.6-164-88.7
			c-29.6-42-44.3-97.4-44.3-166.4c0-78.8,19.1-138.9,57.2-180.2c38.1-41.3,88-62,149.7-62c39.4,0,71.9,6.7,97.5,20
			c25.6,13.3,49.5,35.4,71.7,66.3V1148z M8177.5,1393.5c0,36.6,7.8,63.6,23.4,81.3c15.6,17.6,36.1,26.5,61.5,26.5
			c24.1,0,44.4-9.1,60.8-27.4c16.4-18.3,24.5-45.8,24.5-82.7c0-36.9-8.6-65.1-25.7-84.6c-17.2-19.5-38.1-29.3-62.9-29.3
			s-44.6,9-59.4,26.9C8184.8,1322.1,8177.5,1351.9,8177.5,1393.5z"/>
		<path class="st1" d="M8972.5,1312l-185.4-19.5c7-32.4,17.1-57.9,30.3-76.5c13.2-18.6,32.2-34.7,57-48.4
			c17.8-9.8,42.3-17.5,73.4-22.9c31.1-5.4,64.8-8.1,101.1-8.1c58.2,0,104.9,3.3,140.2,9.8c35.3,6.5,64.7,20.1,88.2,40.8
			c16.5,14.3,29.6,34.6,39.1,60.8c9.5,26.2,14.3,51.2,14.3,75.1v223.6c0,23.8,1.5,42.5,4.5,56c3,13.5,9.6,30.7,19.8,51.7h-182.1
			c-7.3-13-12.1-23-14.3-29.8c-2.2-6.8-4.5-17.6-6.7-32.2c-25.4,24.5-50.7,42-75.8,52.4c-34.3,14-74.2,21-119.7,21
			c-60.4,0-106.2-14-137.5-42c-31.3-28-47-62.4-47-103.4c0-38.4,11.3-70.1,33.8-94.9c22.6-24.8,64.2-43.2,124.9-55.3
			c72.8-14.6,120-24.9,141.6-30.7c21.6-5.9,44.5-13.6,68.6-23.1c0-23.8-4.9-40.5-14.8-50.1c-9.9-9.5-27.2-14.3-52-14.3
			c-31.8,0-55.6,5.1-71.5,15.3C8990.1,1275.2,8980.1,1290.1,8972.5,1312z M9140.8,1414c-26.7,9.5-54.5,18-83.4,25.3
			c-39.4,10.5-64.4,20.8-74.8,31c-10.8,10.5-16.2,22.4-16.2,35.8c0,15.3,5.3,27.7,16,37.4c10.6,9.7,26.3,14.5,47,14.5
			c21.6,0,41.7-5.2,60.3-15.7c18.6-10.5,31.8-23.3,39.6-38.4c7.8-15.1,11.7-34.7,11.7-58.9V1414z"/>
		<path class="st1" d="M9590.2,955.4h194.5v698.9h-194.5V955.4z"/>
	</g>
	<g>
		<path class="st1" d="M4309.6,2074.9h284l109.5,425.2l108.7-425.2h283.8v698.9h-176.9v-533l-136.3,533h-160.1l-136-533v533h-176.9
			V2074.9z"/>
		<path class="st1" d="M5836.3,2568.8h-389c3.5,31.2,11.9,54.3,25.3,69.6c18.7,21.9,43.2,32.9,73.4,32.9c19.1,0,37.2-4.8,54.3-14.3
			c10.5-6,21.8-16.7,33.8-31.9l191.2,17.6c-29.2,50.9-64.5,87.3-105.8,109.4c-41.3,22.1-100.6,33.1-177.8,33.1
			c-67.1,0-119.8-9.5-158.3-28.4c-38.5-18.9-70.3-48.9-95.6-90.1c-25.3-41.2-37.9-89.5-37.9-145.2c0-79.1,25.3-143.2,76-192.1
			c50.7-48.9,120.7-73.4,210-73.4c72.5,0,129.7,11,171.6,32.9s73.9,53.7,95.8,95.3c21.9,41.6,32.9,95.8,32.9,162.6V2568.8z
			 M5639,2475.9c-3.8-37.5-13.9-64.4-30.3-80.6c-16.4-16.2-37.9-24.3-64.6-24.3c-30.8,0-55.5,12.2-73.9,36.7
			c-11.8,15.3-19.2,38-22.4,68.2H5639z"/>
		<path class="st1" d="M6213.2,2074.9v192.6H6320v142.1h-106.8V2589c0,21.6,2.1,35.8,6.2,42.8c6.4,10.8,17.5,16.2,33.4,16.2
			c14.3,0,34.3-4.1,60.1-12.4l14.3,133.9c-48,10.5-92.8,15.7-134.4,15.7c-48.3,0-83.9-6.2-106.8-18.6
			c-22.9-12.4-39.8-31.2-50.8-56.4c-11-25.2-16.4-66.1-16.4-122.6v-178.1h-71.5v-142.1h71.5v-93L6213.2,2074.9z"/>
		<path class="st1" d="M6643.1,2431.5l-185.4-19.5c7-32.4,17.1-57.9,30.3-76.5c13.2-18.6,32.2-34.7,57-48.4
			c17.8-9.8,42.3-17.5,73.4-22.9c31.1-5.4,64.8-8.1,101.1-8.1c58.2,0,104.9,3.3,140.2,9.8c35.3,6.5,64.7,20.1,88.2,40.8
			c16.5,14.3,29.6,34.6,39.1,60.8c9.5,26.2,14.3,51.2,14.3,75.1v223.6c0,23.8,1.5,42.5,4.5,56c3,13.5,9.6,30.7,19.8,51.7h-182.1
			c-7.3-13-12.1-23-14.3-29.8c-2.2-6.8-4.5-17.6-6.7-32.2c-25.4,24.5-50.7,42-75.8,52.4c-34.3,14-74.2,21-119.7,21
			c-60.4,0-106.2-14-137.5-42c-31.3-28-47-62.4-47-103.4c0-38.4,11.3-70.1,33.8-94.9c22.6-24.8,64.2-43.2,124.9-55.3
			c72.8-14.6,120-24.9,141.6-30.7c21.6-5.9,44.5-13.6,68.6-23.1c0-23.8-4.9-40.5-14.8-50.1c-9.9-9.5-27.2-14.3-52-14.3
			c-31.8,0-55.6,5.1-71.5,15.3C6660.7,2394.7,6650.7,2409.6,6643.1,2431.5z M6811.3,2533.5c-26.7,9.5-54.5,18-83.4,25.3
			c-39.4,10.5-64.4,20.8-74.8,31c-10.8,10.5-16.2,22.4-16.2,35.8c0,15.3,5.3,27.7,16,37.4c10.6,9.7,26.3,14.5,47,14.5
			c21.6,0,41.7-5.2,60.3-15.7c18.6-10.5,31.8-23.3,39.6-38.4c7.8-15.1,11.7-34.7,11.7-58.9V2533.5z"/>
		<path class="st1" d="M7177.8,2074.9h194.5v698.9h-194.5V2074.9z"/>
		<path class="st1" d="M7493.2,2267.5h187.6l81.2,318.7l102.7-318.7H8040l107.1,319.6l81.6-319.6h186.4l-186.5,506.3H8056
			l-102.5-304.6l-99.1,304.6h-173.4L7493.2,2267.5z"/>
		<path class="st1" d="M8484.6,2522.1c0-77.2,26.1-140.9,78.2-190.9c52.1-50.1,122.5-75.1,211.2-75.1c101.4,0,178,29.4,229.8,88.2
			c41.6,47.4,62.4,105.7,62.4,175c0,77.9-25.8,141.7-77.5,191.4c-51.6,49.7-123.1,74.6-214.3,74.6c-81.4,0-147.1-20.7-197.4-62
			C8515.4,2672.1,8484.6,2605,8484.6,2522.1z M8679.1,2521.6c0,45.1,9.1,78.5,27.4,100.1c18.3,21.6,41.2,32.4,68.9,32.4
			c28,0,50.9-10.6,68.9-31.9c18-21.3,26.9-55.5,26.9-102.5c0-43.9-9.1-76.5-27.2-98c-18.1-21.5-40.5-32.2-67.2-32.2
			c-28.3,0-51.6,10.9-70.1,32.7C8688.3,2444,8679.1,2477.1,8679.1,2521.6z"/>
		<path class="st1" d="M9215.2,2267.5h181.6v82.9c17.5-35.9,35.5-60.6,54.1-74.1c18.6-13.5,41.5-20.3,68.9-20.3
			c28.6,0,59.9,8.9,93.9,26.7l-60.1,138.2c-22.9-9.5-41-14.3-54.3-14.3c-25.4,0-45.1,10.5-59.1,31.5c-20,29.6-30,84.9-30,165.9
			v169.7h-195V2267.5z"/>
		<path class="st1" d="M9732.7,2074.9H9931v360.7l144.9-168.1h238.8l-181.6,177.3l192.1,328.9h-218.6l-102.5-202.9l-73.1,71.4v131.6
			h-198.3V2074.9z"/>
		<path class="st1" d="M10403.3,2633.2l192.6-18.1c7.9,22.9,19.1,39.3,33.4,49.1c14.3,9.9,33.4,14.8,57.2,14.8
			c26.1,0,46.2-5.5,60.5-16.7c11.1-8.2,16.7-18.6,16.7-30.9c0-14-7.3-24.8-21.9-32.4c-10.5-5.4-38.3-12.1-83.4-20
			c-67.4-11.7-114.2-22.6-140.4-32.6c-26.2-10-48.3-26.9-66.3-50.7c-18-23.8-26.9-51-26.9-81.4c0-33.3,9.7-62.1,29.1-86.2
			c19.4-24.1,46.1-42.1,80.1-54c34-11.9,79.6-17.9,136.8-17.9c60.4,0,105,4.6,133.7,13.8c28.8,9.2,52.8,23.5,72,42.9
			c19.2,19.4,35.2,45.6,47.9,78.7l-184,18.1c-4.8-16.2-12.7-28.1-23.8-35.8c-15.3-10.2-33.7-15.3-55.3-15.3
			c-21.9,0-37.9,3.9-47.9,11.7c-10,7.8-15,17.2-15,28.3c0,12.4,6.4,21.7,19.1,28.1c12.7,6.3,40.4,12.1,82.9,17.1
			c64.5,7.3,112.5,17.5,144,30.5c31.5,13,55.5,31.6,72.2,55.7c16.7,24.1,25,50.6,25,79.5c0,29.2-8.8,57.6-26.5,85.2
			c-17.6,27.6-45.5,49.6-83.4,66c-38,16.3-89.7,24.5-155.2,24.5c-92.5,0-158.3-13.2-197.6-39.6
			C10439.6,2719.3,10414.4,2681.8,10403.3,2633.2z"/>
	</g>
</g>
</svg>
